<?xml version="1.0" encoding="utf-8"?>
<!-- Generator: Adobe Illustrator 25.0.1, SVG Export Plug-In . SVG Version: 6.00 Build 0)  -->
<svg version="1.1" id="Layer_1" xmlns="http://www.w3.org/2000/svg" xmlns:xlink="http://www.w3.org/1999/xlink" x="0px" y="0px"
	 viewBox="0 0 1049.87 49.99" style="enable-background:new 0 0 1049.87 49.99;" xml:space="preserve">
<style type="text/css">
	.st0{fill:none;stroke:#C67A4C;stroke-miterlimit:10;}
</style>
<path class="st0" d="M0,32.94h434.46l1.65-5.63l1.79,5.63h4.53l5.36-26.79l4.26,40.54l3.02-13.88h6.46l3.44-9.21l4.4,16.9l3.16-8.52
	h2.2l2.75,4.67l2.89-26.38l1.1,22.4h18.69c0,0-6.32-7.97-6.32-17.18s7.01-13.74,13.19-13.74c6.18,0,13.19,5.77,13.19,9.34
	c0-3.02,4.95-9.34,14.02-9.34c9.07,0,13.67,6.6,13.67,13.67s-7.21,17.52-7.21,17.52h18.82l1.92-22.67l2.2,26.11l3.71-5.63
	l4.12,10.44l3.71-18.55l3.16,9.76h7.01l3.3,14.29l4.12-40.26l5.08,26.66h4.67l2.06-5.91l2.2,5.77h443.1"/>
</svg>
